<svg id="Layer_1" data-name="Layer 1" xmlns="http://www.w3.org/2000/svg" viewBox="0 0 113.79 122.88"><defs><style>.cls-1{fill-rule:evenodd;}</style></defs><title>lamp</title><path class="cls-1" d="M75.64,27a35.42,35.42,0,0,1,8.58,7.07A32.54,32.54,0,0,1,90,43.34h0a37.48,37.48,0,0,1,1.85,5.93,35,35,0,0,1,.24,14,38.35,38.35,0,0,1-2.16,7.3l-.11.25c-2,5-5.58,9.84-9,14.62-1.74,2.42-3.47,4.81-4.92,7.13a4.71,4.71,0,0,1-4.33,2.18L44.05,98.84a4.7,4.7,0,0,1-5.21-3.41,38.85,38.85,0,0,0-2.53-5.8,24.22,24.22,0,0,0-3-4.48C31.89,83.53,30.44,81.87,29,80a40.57,40.57,0,0,1-4.14-6.92h0a41.19,41.19,0,0,1-2.8-8,35.59,35.59,0,0,1-.95-8.42v0a35.78,35.78,0,0,1,1.17-8.73,41.74,41.74,0,0,1,3.41-8.82l.2-.36A35.1,35.1,0,0,1,33,30.09a33.5,33.5,0,0,1,9.43-5.81l.29-.11a35.14,35.14,0,0,1,8-2.13,37.61,37.61,0,0,1,8.75-.2,38.63,38.63,0,0,1,8.37,1.71A37.79,37.79,0,0,1,75.64,27Zm-3.88,87.35a17.36,17.36,0,0,1-6.26,6.28,16.36,16.36,0,0,1-7.19,2.19,14.86,14.86,0,0,1-7.39-1.44,15.07,15.07,0,0,1-4.38-3.26l25.22-3.77Zm2.4-14.11,0,1.65,0,.57a23.51,23.51,0,0,1,0,3.25l-.5,2.38-30.56,4.54-.53-1.22-1.19-4.88,0-1.42,32.7-4.87Zm-18-96.51A3.84,3.84,0,0,1,60.07,0h0l.26,0A3.89,3.89,0,0,1,62.8,1.19a3.86,3.86,0,0,1,1.06,2.69h0a1.27,1.27,0,0,1,0,.2l-.21,8.19h0a2.28,2.28,0,0,1,0,.26,3.81,3.81,0,0,1-3.86,3.52h0l-.27,0a3.77,3.77,0,0,1-2.46-1.17A3.84,3.84,0,0,1,56,12.18h0a1.27,1.27,0,0,1,0-.2l.2-8.22ZM14,18.1a3.9,3.9,0,0,1-1.22-2.67,3.83,3.83,0,0,1,3.69-4,3.84,3.84,0,0,1,2.75,1l6.14,5.73a3.85,3.85,0,0,1,.21,5.42,3.91,3.91,0,0,1-2.68,1.22,3.82,3.82,0,0,1-2.74-1L14,18.1Zm-10,42.22A3.86,3.86,0,0,1,0,56.6a3.78,3.78,0,0,1,1-2.75,3.81,3.81,0,0,1,2.68-1.2l8.38-.28a3.83,3.83,0,0,1,4,3.71v.06h0v.14a3.86,3.86,0,0,1-1,2.55A3.81,3.81,0,0,1,12.34,60h-.15l-8.28.28ZM109.6,48.43h.13a3.84,3.84,0,0,1,2.65.85,3.91,3.91,0,0,1,1.4,2.59v0s0,.1,0,.12a3.84,3.84,0,0,1-3.44,4L102,57a3.84,3.84,0,0,1-4.21-3.42,3.84,3.84,0,0,1,3.43-4.21c2.78-.3,5.58-.62,8.37-.89ZM93.08,15.05A3.81,3.81,0,0,1,98.39,14h0A3.78,3.78,0,0,1,100,16.44a3.88,3.88,0,0,1-.57,2.88l-4.67,7A3.84,3.84,0,0,1,88.4,22l4.68-7ZM61.26,54.91h5.89a1.54,1.54,0,0,1,1.54,1.54,1.56,1.56,0,0,1-.26.86l-14,23.93a1.53,1.53,0,0,1-2.11.52,1.55,1.55,0,0,1-.72-1.63l2.07-14.68-7,.12a1.53,1.53,0,0,1-1.56-1.51,1.49,1.49,0,0,1,.21-.81L59.11,39.33a1.55,1.55,0,0,1,2.11-.54A1.52,1.52,0,0,1,62,40.33l-.7,14.58Z"/></svg>